<svg width="177" height="54" viewBox="0 0 177 54" fill="none" xmlns="http://www.w3.org/2000/svg">
<path d="M17.7 42.5056H16.0839C16.0839 42.5056 13.6213 42.5828 12.7748 39.9599C12.7748 39.9599 11.5435 35.717 6.61824 36.6428C6.61824 36.6428 5.30998 37.7999 4.30955 36.257L2.69346 32.6313C2.69346 32.6313 1.92389 31.1656 3.69389 30.317C3.69389 30.317 6.38737 29.5456 6.54129 26.0742C6.54129 26.0742 6.6952 22.9885 3.53998 21.4456C3.53998 21.4456 2.46259 20.9828 2.69346 19.3628C2.77042 18.977 4.23259 15.737 4.23259 15.737C4.23259 15.737 4.69433 14.4256 6.54129 15.1199C6.54129 15.1199 9.77346 15.9685 11.4665 13.9628C11.4665 13.9628 13.7752 11.7256 12.5439 8.71705C12.5439 8.71705 11.9282 7.71419 12.8517 7.0199L17.0843 5.09133C17.0843 5.09133 18.1617 4.55133 18.8543 5.55419C18.8543 5.55419 20.0856 9.10276 23.5487 9.02562C27.0117 8.94847 28.1661 5.63133 28.1661 5.63133C28.1661 5.63133 28.3969 4.70562 29.6282 4.93705C30.8595 5.16847 34.1687 6.86562 34.1687 6.86562C34.1687 6.86562 34.9382 7.32847 34.5535 8.40847C34.5535 8.40847 33.1682 12.1885 35.7848 14.0399C35.7848 14.0399 37.9395 15.8913 40.9408 14.9656C40.9408 14.9656 41.8643 14.4256 42.3261 15.0428C42.3261 15.0428 43.9422 17.5113 44.3269 19.8256C44.3269 19.8256 44.6348 21.0599 43.4035 21.4456C43.4035 21.4456 40.4791 22.6028 40.4022 26.0742C40.3252 29.5456 43.7113 30.5485 43.7113 30.5485C43.7113 30.5485 44.6348 30.9342 44.4039 32.1685C44.4039 32.1685 43.7113 34.8685 42.48 36.5656C42.48 36.5656 41.9413 37.4142 40.71 36.8742C40.71 36.8742 38.2474 35.7942 36.4774 37.1056C36.4774 37.1056 35.0152 37.9542 34.3226 39.8056C34.3226 39.8056 33.3222 43.3542 29.1665 42.6599C29.1665 42.6599 30.1669 41.4256 30.1669 39.8828C30.1669 38.5713 30.7826 37.337 30.7826 37.337L33.2452 33.2485C33.2452 33.2485 35.5539 29.3913 35.5539 25.6885C35.5539 25.6885 35.5539 14.5028 23.4717 13.6542C23.4717 13.6542 12.39 13.4999 11.4665 25.6113C11.4665 25.6113 11.2356 28.5428 13.3904 32.3228C13.3904 32.3228 16.6995 37.4913 16.7765 39.2656C16.6995 41.5799 17.7 42.5056 17.7 42.5056Z" fill="black"/>
<path d="M23.4717 48.5229C20.5473 48.4458 19.7008 45.8229 19.7008 45.8229H23.4717H27.2425C27.2425 45.7458 26.3191 48.4458 23.4717 48.5229Z" fill="black"/>
<path d="M19.2391 44.8197C18.7004 44.8197 18.2386 44.3568 18.2386 43.8168C18.2386 43.2768 18.7004 42.814 19.2391 42.814H27.7043C28.243 42.814 28.7047 43.2768 28.7047 43.8168C28.7047 44.3568 28.243 44.8197 27.7043 44.8197H19.2391Z" fill="black"/>
<path d="M21.2399 27.6172C21.2399 27.6944 21.3168 27.7715 21.3938 27.7715H21.4708C21.5477 27.6944 21.6247 27.6172 21.5477 27.4629L20.5473 25.0715C20.4703 24.9944 20.3934 24.9172 20.2394 24.9944C20.1625 25.0715 20.0855 25.1486 20.1625 25.3029L21.2399 27.6172Z" fill="black"/>
<path d="M23.3947 27.4629C23.4716 27.4629 23.6256 27.3086 23.6256 27.1543V20.7514C23.6256 20.5972 23.5486 20.4429 23.3947 20.4429C23.2408 20.4429 23.1638 20.5972 23.1638 20.7514V27.1543C23.1638 27.3086 23.3177 27.4629 23.3947 27.4629Z" fill="black"/>
<path d="M25.2417 27.6943H25.3186C25.3956 27.6943 25.4726 27.6172 25.4726 27.5401L26.473 25.1486C26.5499 25.0715 26.473 24.9172 26.396 24.8401C26.3191 24.7629 26.1652 24.8401 26.0882 24.9172L25.0878 27.3086C25.0878 27.5401 25.1647 27.6943 25.2417 27.6943Z" fill="black"/>
<path d="M19.7777 24.2999C19.7777 24.3771 19.8547 24.4542 19.9317 24.4542H20.0086C20.0856 24.3771 20.1625 24.2999 20.0856 24.1456L19.7777 23.1428C19.7008 23.0656 19.6238 22.9885 19.4699 23.0656C19.393 23.1428 19.316 23.2199 19.393 23.3742L19.7777 24.2999Z" fill="black"/>
<path d="M20.1625 29.0829C20.2394 29.0829 20.2394 29.1601 20.3164 29.1601C20.3934 29.1601 20.3934 29.1601 20.4703 29.0829C20.5473 29.0058 20.5473 28.8515 20.4703 28.7743L15.9299 24.4543C15.8529 24.3772 15.699 24.3772 15.622 24.4543C15.5451 24.5315 15.5451 24.6858 15.622 24.7629L20.1625 29.0829Z" fill="black"/>
<path d="M26.7038 24.3771H26.7808C26.8578 24.3771 26.9347 24.2999 26.9347 24.2228L27.3195 23.2199C27.3964 23.1428 27.3195 22.9885 27.2425 22.9113C27.1656 22.8342 27.0117 22.9113 26.9347 22.9885L26.5499 23.9913C26.5499 24.2228 26.6269 24.2999 26.7038 24.3771Z" fill="black"/>
<path d="M27.2426 31.7055C27.2426 31.7827 27.3195 31.937 27.4734 31.937H32.8604C32.9373 31.937 33.0912 31.8598 33.0912 31.7055C33.0912 31.5513 33.0143 31.4741 32.8604 31.4741H27.4734C27.3195 31.4741 27.2426 31.5513 27.2426 31.7055Z" fill="black"/>
<path d="M27.8581 33.1716C27.7812 33.0945 27.6273 33.1716 27.5503 33.2487C27.4734 33.3259 27.5503 33.4802 27.6273 33.5573L30.0129 34.7145H30.0899C30.1668 34.7145 30.2438 34.6373 30.2438 34.6373C30.3207 34.5602 30.2438 34.4059 30.1668 34.3287L27.8581 33.1716Z" fill="black"/>
<path d="M26.396 29.0829C26.4729 29.1601 26.4729 29.1601 26.5499 29.1601C26.6268 29.1601 26.6268 29.1601 26.7038 29.0829L31.2442 24.7629C31.3212 24.6858 31.3212 24.5315 31.2442 24.4543C31.1673 24.3772 31.0134 24.3772 30.9364 24.4543L26.396 28.7743C26.319 28.8515 26.319 28.9286 26.396 29.0829Z" fill="black"/>
<path d="M29.8591 29.3144C29.9361 29.2373 30.013 29.1601 30.013 29.0058C29.9361 28.9287 29.8591 28.8516 29.7052 28.8516L27.1656 29.8544C27.0887 29.9316 27.0117 30.0087 27.0117 30.163C27.0117 30.2401 27.0887 30.3173 27.2426 30.3173H27.3195L29.8591 29.3144Z" fill="black"/>
<path d="M30.6287 28.7744C30.6287 28.8515 30.7056 28.9286 30.8595 28.9286H30.9365L31.9369 28.5429C32.0139 28.4658 32.0909 28.3886 32.0909 28.2344C32.0139 28.1572 31.9369 28.0801 31.783 28.0801L30.7056 28.5429C30.6287 28.5429 30.5517 28.6972 30.6287 28.7744Z" fill="black"/>
<path d="M17.0842 28.9287C17.0073 28.8516 16.8534 28.9287 16.7764 29.083C16.6994 29.1601 16.7764 29.3144 16.9303 29.3916L19.4699 30.3944H19.5468C19.6238 30.3944 19.7008 30.3173 19.7777 30.2401C19.8547 30.163 19.7777 30.0087 19.6238 29.9316L17.0842 28.9287Z" fill="black"/>
<path d="M14.9295 28.4658L15.93 28.8515H16.0069C16.0839 28.8515 16.1609 28.7743 16.2378 28.6972C16.3148 28.6201 16.2378 28.4658 16.0839 28.3886L15.0835 28.0029C15.0065 27.9258 14.8526 28.0029 14.7756 28.1572C14.7756 28.3115 14.7756 28.4658 14.9295 28.4658Z" fill="black"/>
<path d="M23.5486 28.0801L23.3947 28.0029L23.2408 28.0801C21.6247 29.2372 20.6243 31.0886 20.6243 33.0944C20.6243 35.0229 21.5477 36.8744 23.0869 38.0315V42.8144H23.4717V38.0315C25.0108 36.8744 25.9343 35.0229 25.9343 33.0944C26.0882 31.0886 25.1647 29.2372 23.5486 28.0801ZM25.6264 32.6315L23.5486 34.7915V31.9372L24.9338 30.4715C25.3956 31.0886 25.6264 31.8601 25.6264 32.6315ZM23.1638 37.4915C21.8556 36.4115 21.086 34.8686 21.086 33.1715L23.1638 35.4086V37.4915ZM23.1638 34.7915L21.086 32.6315C21.163 31.8601 21.3938 31.0886 21.7017 30.4715L23.0869 31.9372V34.7915H23.1638ZM23.3947 31.5515L22.0095 30.0858C22.3943 29.4686 22.856 29.0058 23.3947 28.5429C23.9334 28.9286 24.3951 29.4686 24.7799 30.0858L23.3947 31.5515ZM23.6256 37.4915V35.4086L25.7034 33.1715C25.6264 34.8686 24.8569 36.4886 23.6256 37.4915Z" fill="black"/>
<path d="M14.006 31.8598H19.393C19.4699 31.8598 19.6238 31.7827 19.6238 31.6284C19.6238 31.4741 19.5469 31.397 19.393 31.397H14.006C13.9291 31.397 13.7751 31.4741 13.7751 31.6284C13.7751 31.7827 13.8521 31.8598 14.006 31.8598Z" fill="black"/>
<path d="M18.9313 33.1713L16.5456 34.4056C16.4686 34.4827 16.3917 34.5598 16.4686 34.7141C16.4686 34.7913 16.5456 34.7913 16.6226 34.7913H16.6995L19.0852 33.557C19.1621 33.4798 19.2391 33.4027 19.1621 33.2484C19.1621 33.0941 19.0852 33.0941 18.9313 33.1713Z" fill="black"/>
<path d="M55.3318 39.6513H51.33C51.33 39.6513 51.2531 39.6513 51.2531 39.7285V42.4285C51.2531 42.4285 51.2531 42.5056 51.33 42.5056H54.1005C54.1774 42.5056 54.2544 42.5828 54.2544 42.6599V43.0456C54.2544 43.1228 54.1774 43.1999 54.1005 43.1999H51.33C51.33 43.1999 51.2531 43.1999 51.2531 43.277V45.977C51.2531 45.977 51.2531 46.0542 51.33 46.0542H55.3318C55.4087 46.0542 55.4857 46.1313 55.4857 46.2085V46.5942C55.4857 46.6713 55.4087 46.7485 55.3318 46.7485H50.6374C50.5605 46.7485 50.4835 46.6713 50.4835 46.5942V39.1885C50.4835 39.1113 50.5605 39.0342 50.6374 39.0342H55.3318C55.4087 39.0342 55.4857 39.1113 55.4857 39.1885V39.5742C55.4857 39.5742 55.4087 39.6513 55.3318 39.6513Z" fill="black"/>
<path d="M61.0266 42.8915V46.5172C61.0266 46.5943 60.9496 46.6715 60.8726 46.6715H60.4109C60.3339 46.6715 60.257 46.5943 60.257 46.5172V43.0457C60.257 42.1972 59.7183 41.6572 58.9487 41.6572C58.1792 41.6572 57.6405 42.12 57.5635 42.8143V46.44C57.5635 46.5172 57.4866 46.5943 57.4096 46.5943H56.9479C56.8709 46.5943 56.7939 46.5172 56.7939 46.44V41.1943C56.7939 41.1172 56.8709 41.04 56.9479 41.04H57.4096C57.4866 41.04 57.5635 41.1172 57.5635 41.1943V41.6572C57.5635 41.7343 57.5635 41.7343 57.6405 41.6572C57.9483 41.1943 58.487 40.9629 59.1026 40.9629C60.3339 40.9629 61.0266 41.7343 61.0266 42.8915Z" fill="black"/>
<path d="M66.1827 41.04H66.6444C66.7214 41.04 66.7983 41.1172 66.7983 41.1943V46.44C66.7983 48.2915 65.4901 48.9086 63.797 48.8315C63.7201 48.8315 63.6431 48.7543 63.6431 48.6772V48.2143C63.6431 48.1372 63.7201 48.06 63.797 48.06C65.3361 48.1372 66.0288 47.5972 66.0288 46.3629V45.9772C66.0288 45.9 66.0287 45.9 65.9518 45.9772C65.644 46.3629 65.1822 46.5943 64.4896 46.5943C63.5661 46.5943 62.7196 46.0543 62.4887 45.1286C62.4118 44.82 62.3348 44.3572 62.3348 43.8172C62.3348 43.2772 62.3348 42.8143 62.4887 42.4286C62.7196 41.58 63.4892 40.9629 64.4127 40.9629C65.1053 40.9629 65.567 41.1943 65.8748 41.58C65.8748 41.6572 65.9518 41.58 65.9518 41.58V41.1943C66.1057 41.1172 66.1057 41.04 66.1827 41.04ZM66.1057 43.8172C66.1057 43.0457 66.1057 42.8915 66.0288 42.7372C65.8748 42.12 65.4131 41.6572 64.7205 41.6572C64.0279 41.6572 63.4892 42.12 63.3353 42.7372C63.2583 42.9686 63.2583 43.2772 63.2583 43.8172C63.2583 44.4343 63.3353 44.7429 63.3353 44.8972C63.4892 45.5143 63.9509 45.9772 64.7205 45.9772C65.4901 45.9772 65.9518 45.5143 66.0288 44.8972C66.0288 44.7429 66.1057 44.5886 66.1057 43.8172Z" fill="black"/>
<path d="M68.2605 39.497C68.2605 39.1885 68.4914 38.957 68.8762 38.957C69.2609 38.957 69.4918 39.1885 69.4918 39.497C69.4918 39.8056 69.2609 40.037 68.8762 40.037C68.4914 40.037 68.2605 39.8827 68.2605 39.497ZM68.4914 46.517V41.2713C68.4914 41.1942 68.5683 41.117 68.6453 41.117H69.107C69.184 41.117 69.2609 41.1942 69.2609 41.2713V46.517C69.2609 46.5942 69.184 46.6713 69.107 46.6713H68.6453C68.5683 46.6713 68.4914 46.5942 68.4914 46.517Z" fill="black"/>
<path d="M75.1866 42.8915V46.5172C75.1866 46.5943 75.1096 46.6715 75.0327 46.6715H74.5709C74.494 46.6715 74.417 46.5943 74.417 46.5172V43.0457C74.417 42.1972 73.8783 41.6572 73.1088 41.6572C72.3392 41.6572 71.8005 42.12 71.7235 42.8143V46.44C71.7235 46.5172 71.6466 46.5943 71.5696 46.5943H71.1079C71.0309 46.5943 70.954 46.5172 70.954 46.44V41.1943C70.954 41.1172 71.0309 41.04 71.1079 41.04H71.5696C71.6466 41.04 71.7235 41.1172 71.7235 41.1943V41.6572C71.7235 41.7343 71.7235 41.7343 71.8005 41.6572C72.1083 41.1943 72.647 40.9629 73.2627 40.9629C74.417 40.9629 75.1866 41.7343 75.1866 42.8915Z" fill="black"/>
<path d="M80.3426 45.2057C80.3426 45.1286 80.4196 45.1286 80.4966 45.1286L80.8044 45.2829C80.8813 45.36 80.8813 45.36 80.8813 45.4372C80.5735 46.1315 79.804 46.6715 78.8805 46.6715C77.8031 46.6715 77.1105 46.1315 76.8026 45.2829C76.6487 44.8972 76.5718 44.3572 76.5718 43.74C76.5718 43.2 76.5718 42.8143 76.6487 42.4286C76.8796 41.5029 77.6492 40.8857 78.7266 40.8857C80.0348 40.8857 80.7274 41.6572 80.8813 42.7372C80.9583 43.0457 80.9583 43.3543 80.9583 43.8172C80.9583 43.8943 80.8813 43.9715 80.8044 43.9715H77.2644C77.2644 43.9715 77.1874 43.9715 77.1874 44.0486C77.1874 44.4343 77.1874 44.6657 77.2644 44.82C77.4183 45.4372 77.957 45.9 78.7266 45.9C79.5731 46.0543 80.1118 45.7457 80.3426 45.2057ZM77.4953 42.7372C77.4183 42.8915 77.4183 43.2 77.4183 43.5086C77.4183 43.5086 77.4183 43.5857 77.4953 43.5857H80.3426C80.3426 43.5857 80.4196 43.5857 80.4196 43.5086C80.4196 43.2 80.4196 42.9686 80.3426 42.8143C80.1887 42.1972 79.65 41.7343 78.9574 41.7343C78.1109 41.6572 77.5722 42.12 77.4953 42.7372Z" fill="black"/>
<path d="M86.0375 45.2057C86.0375 45.1286 86.1144 45.1286 86.1914 45.1286L86.4992 45.2829C86.5762 45.36 86.5762 45.36 86.5762 45.4372C86.2683 46.1315 85.4988 46.6715 84.5753 46.6715C83.4979 46.6715 82.8053 46.1315 82.4975 45.2829C82.3436 44.8972 82.2666 44.3572 82.2666 43.74C82.2666 43.2 82.2666 42.8143 82.3436 42.4286C82.5744 41.5029 83.344 40.8857 84.4214 40.8857C85.7296 40.8857 86.4223 41.6572 86.5762 42.7372C86.6531 43.0457 86.6531 43.3543 86.6531 43.8172C86.6531 43.8943 86.5762 43.9715 86.4992 43.9715H82.9592C82.9592 43.9715 82.8823 43.9715 82.8823 44.0486C82.8823 44.4343 82.8823 44.6657 82.9592 44.82C83.1131 45.4372 83.6518 45.9 84.4214 45.9C85.3449 46.0543 85.8066 45.7457 86.0375 45.2057ZM83.1901 42.7372C83.1131 42.8915 83.1131 43.2 83.1131 43.5086C83.1131 43.5086 83.1131 43.5857 83.1901 43.5857H86.0375C86.0375 43.5857 86.1144 43.5857 86.1144 43.5086C86.1144 43.2 86.1144 42.9686 86.0375 42.8143C85.8836 42.1972 85.3449 41.7343 84.6523 41.7343C83.8057 41.6572 83.344 42.12 83.1901 42.7372Z" fill="black"/>
<path d="M91.1166 41.1172C91.1936 41.1172 91.1936 41.1943 91.1936 41.2715L91.1166 41.7343C91.1166 41.8115 91.0397 41.8886 90.9627 41.8115C90.8088 41.7343 90.6549 41.7343 90.424 41.7343C89.6544 41.7343 89.1158 42.3515 89.1158 43.2V46.44C89.1158 46.5172 89.0388 46.5943 88.9618 46.5943H88.5001C88.4231 46.5943 88.3462 46.5172 88.3462 46.44V41.1943C88.3462 41.1172 88.4231 41.04 88.5001 41.04H88.9618C89.0388 41.04 89.1158 41.1172 89.1158 41.1943V41.8115C89.1158 41.8886 89.1158 41.8886 89.1927 41.8115C89.5005 41.2715 89.9623 40.9629 90.5779 40.9629C90.7318 41.04 90.9627 41.04 91.1166 41.1172Z" fill="black"/>
<path d="M92.04 39.497C92.04 39.1885 92.2709 38.957 92.6557 38.957C93.0405 38.957 93.2713 39.1885 93.2713 39.497C93.2713 39.8056 93.0405 40.037 92.6557 40.037C92.2709 40.037 92.04 39.8827 92.04 39.497ZM92.194 46.517V41.2713C92.194 41.1942 92.2709 41.117 92.3479 41.117H92.8096C92.8866 41.117 92.9635 41.1942 92.9635 41.2713V46.517C92.9635 46.5942 92.8866 46.6713 92.8096 46.6713H92.3479C92.2709 46.6713 92.194 46.5942 92.194 46.517Z" fill="black"/>
<path d="M98.8892 42.8915V46.5172C98.8892 46.5943 98.8123 46.6715 98.7353 46.6715H98.2736C98.1966 46.6715 98.1197 46.5943 98.1197 46.5172V43.0457C98.1197 42.1972 97.581 41.6572 96.8114 41.6572C96.0418 41.6572 95.5031 42.12 95.4262 42.8143V46.44C95.4262 46.5172 95.3492 46.5943 95.2723 46.5943H94.8105C94.7336 46.5943 94.6566 46.5172 94.6566 46.44V41.1943C94.6566 41.1172 94.7336 41.04 94.8105 41.04H95.2723C95.3492 41.04 95.4262 41.1172 95.4262 41.1943V41.6572C95.4262 41.7343 95.4262 41.7343 95.5031 41.6572C95.811 41.1943 96.3497 40.9629 96.9653 40.9629C98.1966 40.9629 98.8892 41.7343 98.8892 42.8915Z" fill="black"/>
<path d="M104.045 41.04H104.507C104.584 41.04 104.661 41.1172 104.661 41.1943V46.44C104.661 48.2915 103.353 48.9086 101.66 48.8315C101.583 48.8315 101.506 48.7543 101.506 48.6772V48.2143C101.506 48.1372 101.583 48.06 101.66 48.06C103.199 48.1372 103.891 47.5972 103.891 46.3629V45.9772C103.891 45.9 103.891 45.9 103.814 45.9772C103.507 46.3629 103.045 46.5943 102.352 46.5943C101.429 46.5943 100.582 46.0543 100.351 45.1286C100.274 44.82 100.197 44.3572 100.197 43.8172C100.197 43.2772 100.197 42.8143 100.351 42.4286C100.582 41.58 101.352 40.9629 102.275 40.9629C102.968 40.9629 103.43 41.1943 103.737 41.58C103.737 41.6572 103.814 41.58 103.814 41.58V41.1943C103.891 41.1172 103.968 41.04 104.045 41.04ZM103.891 43.8172C103.891 43.0457 103.891 42.8915 103.814 42.7372C103.737 42.12 103.199 41.6572 102.506 41.6572C101.813 41.6572 101.275 42.12 101.121 42.7372C101.044 42.9686 101.044 43.2772 101.044 43.8172C101.044 44.4343 101.121 44.7429 101.121 44.8972C101.275 45.5143 101.737 45.9772 102.506 45.9772C103.276 45.9772 103.737 45.5143 103.814 44.8972C103.891 44.7429 103.891 44.5886 103.891 43.8172Z" fill="black"/>
<path d="M108.047 44.6656V44.357C108.047 44.2799 108.124 44.2027 108.201 44.2027H108.663C108.74 44.2027 108.817 44.2799 108.817 44.357V44.5884C108.817 45.437 109.586 45.977 110.74 45.977C111.895 45.977 112.434 45.437 112.434 44.6656C112.434 43.8942 111.818 43.5084 110.433 42.8913C109.124 42.3513 108.124 41.9656 108.124 40.7313C108.124 39.497 109.047 38.8027 110.51 38.8027C112.126 38.8027 113.126 39.6513 113.126 40.8856V41.117C113.126 41.1942 113.049 41.2713 112.972 41.2713H112.51C112.434 41.2713 112.357 41.1942 112.357 41.117V40.9627C112.357 40.1142 111.664 39.497 110.51 39.497C109.509 39.497 108.894 39.9599 108.894 40.7313C108.894 41.5799 109.509 41.8113 110.817 42.3513C112.203 42.8913 113.203 43.4313 113.203 44.6656C113.203 45.8999 112.28 46.6713 110.664 46.6713C109.124 46.7484 108.047 45.8999 108.047 44.6656Z" fill="black"/>
<path d="M118.205 45.2057C118.205 45.1286 118.282 45.1286 118.359 45.1286L118.667 45.2829C118.744 45.36 118.744 45.36 118.744 45.4372C118.436 46.1315 117.667 46.6715 116.743 46.6715C115.666 46.6715 114.973 46.1315 114.665 45.2829C114.511 44.8972 114.434 44.3572 114.434 43.74C114.434 43.2 114.434 42.8143 114.511 42.4286C114.742 41.5029 115.512 40.8857 116.589 40.8857C117.897 40.8857 118.59 41.6572 118.744 42.7372C118.821 43.0457 118.821 43.3543 118.821 43.8172C118.821 43.8943 118.744 43.9715 118.667 43.9715H115.127C115.127 43.9715 115.05 43.9715 115.05 44.0486C115.05 44.4343 115.05 44.6657 115.127 44.82C115.281 45.4372 115.82 45.9 116.589 45.9C117.513 46.0543 117.974 45.7457 118.205 45.2057ZM115.358 42.7372C115.281 42.8915 115.281 43.2 115.281 43.5086C115.281 43.5086 115.281 43.5857 115.358 43.5857H118.205C118.205 43.5857 118.282 43.5857 118.282 43.5086C118.282 43.2 118.282 42.9686 118.205 42.8143C118.051 42.1972 117.513 41.7343 116.82 41.7343C115.973 41.6572 115.512 42.12 115.358 42.7372Z" fill="black"/>
<path d="M123.207 41.1172C123.284 41.1172 123.284 41.1943 123.284 41.2715L123.207 41.7343C123.207 41.8115 123.13 41.8886 123.054 41.8115C122.9 41.7343 122.746 41.7343 122.515 41.7343C121.745 41.7343 121.207 42.3515 121.207 43.2V46.44C121.207 46.5172 121.13 46.5943 121.053 46.5943H120.591C120.514 46.5943 120.437 46.5172 120.437 46.44V41.1943C120.437 41.1172 120.514 41.04 120.591 41.04H121.053C121.13 41.04 121.207 41.1172 121.207 41.1943V41.8115C121.207 41.8886 121.207 41.8886 121.284 41.8115C121.591 41.2715 122.053 40.9629 122.669 40.9629C122.9 41.04 123.054 41.04 123.207 41.1172Z" fill="black"/>
<path d="M125.824 46.5172L124.054 41.2715C124.054 41.1943 124.054 41.1172 124.208 41.1172H124.747C124.824 41.1172 124.9 41.1172 124.9 41.2715L126.286 45.5143C126.286 45.5915 126.363 45.5915 126.363 45.5143L127.748 41.2715C127.748 41.1943 127.825 41.1172 127.902 41.1172H128.44C128.517 41.1172 128.594 41.1943 128.517 41.2715L126.747 46.5172C126.747 46.5943 126.67 46.6715 126.594 46.6715H125.978C125.901 46.6715 125.901 46.5943 125.824 46.5172Z" fill="black"/>
<path d="M129.518 39.497C129.518 39.1885 129.749 38.957 130.133 38.957C130.518 38.957 130.749 39.1885 130.749 39.497C130.749 39.8056 130.518 40.037 130.133 40.037C129.749 40.037 129.518 39.8827 129.518 39.497ZM129.749 46.517V41.2713C129.749 41.1942 129.826 41.117 129.903 41.117H130.364C130.441 41.117 130.518 41.1942 130.518 41.2713V46.517C130.518 46.5942 130.441 46.6713 130.364 46.6713H129.903C129.826 46.6713 129.749 46.5942 129.749 46.517Z" fill="black"/>
<path d="M132.211 45.2057C132.134 44.82 132.057 44.4343 132.057 43.8172C132.057 43.2 132.134 42.8143 132.211 42.5057C132.442 41.58 133.289 40.9629 134.366 40.9629C135.444 40.9629 136.29 41.58 136.521 42.3515C136.521 42.4286 136.598 42.5829 136.598 42.66C136.598 42.7372 136.521 42.8143 136.444 42.8143L135.982 42.8915C135.905 42.8915 135.828 42.8915 135.828 42.7372C135.828 42.66 135.828 42.66 135.828 42.5829C135.674 42.0429 135.136 41.58 134.443 41.58C133.674 41.58 133.212 42.0429 133.058 42.66C132.981 42.8915 132.981 43.2772 132.981 43.74C132.981 44.28 133.058 44.6657 133.058 44.8972C133.212 45.5143 133.674 45.9772 134.443 45.9772C135.213 45.9772 135.751 45.5143 135.828 44.9743V44.8972C135.828 44.82 135.905 44.7429 135.982 44.7429L136.444 44.82C136.521 44.82 136.598 44.8972 136.598 44.9743C136.598 45.0515 136.598 45.0515 136.521 45.1286C136.29 45.9772 135.444 46.5943 134.366 46.5943C133.289 46.7486 132.442 46.1315 132.211 45.2057Z" fill="black"/>
<path d="M141.369 45.2057C141.369 45.1286 141.446 45.1286 141.523 45.1286L141.831 45.2829C141.908 45.36 141.908 45.36 141.908 45.4372C141.6 46.1315 140.83 46.6715 139.907 46.6715C138.83 46.6715 138.137 46.1315 137.829 45.2829C137.675 44.8972 137.598 44.3572 137.598 43.74C137.598 43.2 137.598 42.8143 137.675 42.4286C137.906 41.5029 138.676 40.8857 139.753 40.8857C141.061 40.8857 141.754 41.6572 141.908 42.7372C141.985 43.0457 141.985 43.3543 141.985 43.8172C141.985 43.8943 141.908 43.9715 141.831 43.9715H138.291C138.291 43.9715 138.214 43.9715 138.214 44.0486C138.214 44.4343 138.214 44.6657 138.291 44.82C138.445 45.4372 138.983 45.9 139.753 45.9C140.6 46.0543 141.138 45.7457 141.369 45.2057ZM138.522 42.7372C138.445 42.8915 138.445 43.2 138.445 43.5086C138.445 43.5086 138.445 43.5857 138.522 43.5857H141.369C141.369 43.5857 141.446 43.5857 141.446 43.5086C141.446 43.2 141.446 42.9686 141.369 42.8143C141.215 42.1972 140.677 41.7343 139.984 41.7343C139.06 41.6572 138.599 42.12 138.522 42.7372Z" fill="black"/>
<path d="M143.293 45.2057V45.1286C143.293 45.0515 143.37 44.9743 143.447 44.9743H143.909C143.986 44.9743 144.063 45.0515 144.063 45.0515V45.1286C144.063 45.5915 144.601 46.0543 145.371 46.0543C146.14 46.0543 146.679 45.6686 146.679 45.1286C146.679 44.5115 146.064 44.3572 145.294 44.1257C144.37 43.8172 143.37 43.5086 143.37 42.5057C143.37 41.58 144.217 40.9629 145.371 40.9629C146.602 40.9629 147.372 41.58 147.372 42.5057C147.372 42.5829 147.295 42.66 147.218 42.66H146.756C146.679 42.66 146.602 42.66 146.602 42.5829V42.5057C146.602 42.0429 146.14 41.6572 145.294 41.6572C144.524 41.6572 144.063 41.9657 144.063 42.5057C144.063 43.0457 144.678 43.2772 145.371 43.5086C146.294 43.74 147.372 44.0486 147.372 45.1286C147.372 46.0543 146.602 46.6715 145.371 46.6715C144.063 46.6715 143.293 46.0543 143.293 45.2057Z" fill="black"/>
<path d="M77.88 29.237H76.4948C75.9561 29.237 75.4943 29.4684 75.2635 29.9313L75.1096 30.2398C74.5709 31.2427 73.3396 31.937 72.0313 31.7827C71.8004 31.7827 71.6465 31.7827 71.4926 31.7056C71.0309 31.6284 70.723 31.2427 70.877 30.7798L77.957 11.2627L85.037 30.7798C85.1909 31.1656 84.883 31.6284 84.4213 31.7056C83.7287 31.8598 82.7283 31.8598 81.8048 31.397C81.497 31.2427 81.2661 31.0113 81.1122 30.7027L80.7274 30.0084C80.4965 29.5456 79.9578 29.237 79.4191 29.237H77.88Z" fill="black"/>
<path d="M67.8757 29.0056C66.1057 30.7799 63.6431 31.937 60.6417 31.937C54.6391 31.937 50.7144 27.3856 50.7144 21.8313C50.7144 16.277 54.6391 11.7256 60.6417 11.7256C63.6431 11.7256 66.1057 12.8056 67.7987 14.657L66.1057 16.3542C64.7974 14.8884 62.9504 14.0399 60.6417 14.0399C56.1013 14.0399 53.177 17.5884 53.177 21.9084C53.177 26.1513 56.1013 29.6999 60.6417 29.6999C62.9504 29.6999 64.8744 28.7742 66.1057 27.3084L67.8757 29.0056Z" fill="black"/>
<path d="M102.737 32.3227L90.4239 17.897V31.6284H87.9613V11.2627L100.274 25.6884V12.0341H102.737V32.3227Z" fill="black"/>
<path d="M125.824 21.8313C125.824 27.3856 121.899 31.937 115.897 31.937C109.894 31.937 105.969 27.3856 105.969 21.8313C105.969 16.277 109.894 11.7256 115.897 11.7256C121.899 11.7256 125.824 16.277 125.824 21.8313ZM123.438 21.8313C123.438 17.5884 120.514 11.7256 115.973 11.7256C111.433 11.7256 108.509 17.5884 108.509 21.8313C108.509 26.0742 111.433 31.937 115.973 31.937C120.514 31.937 123.438 26.0742 123.438 21.8313Z" fill="black"/>
<path d="M135.52 25.2256H131.596V31.6285H129.133V12.0342H135.52C139.522 12.0342 142.293 14.5028 142.293 18.5913C142.293 22.6799 139.522 25.2256 135.52 25.2256ZM135.52 22.9113C136.829 22.9113 139.83 22.2942 139.83 18.5913C139.83 14.8885 136.829 14.2713 135.52 14.2713H131.596V22.9113H135.52Z" fill="black"/>
<path d="M156.145 12.0342H158.607V25.2256C158.607 29.237 156.145 31.937 152.066 31.937C147.987 31.937 145.448 29.237 145.448 25.2256V12.0342H147.91V25.2256C147.91 26.537 148.295 29.6999 152.066 29.6999C155.76 29.6999 156.222 26.537 156.222 25.2256V12.0342H156.145Z" fill="black"/>
<path d="M161.84 25.9967C161.84 28.0025 165.687 29.6225 168.15 29.6225C170.613 29.6225 171.998 28.1567 171.998 26.6139C171.998 24.7625 171.228 24.1453 167.534 22.4482C163.61 20.6739 162.07 19.0539 162.07 16.6625C162.07 15.351 162.609 11.6482 167.996 11.7253C172.613 11.7253 173.691 15.351 173.691 16.971C173.691 15.891 170.536 13.9625 167.842 13.9625C165.226 13.9625 164.533 15.4282 164.533 16.5082C164.533 17.7425 164.995 18.591 168.612 20.211C172.46 21.9082 174.383 23.3739 174.383 26.5367C174.383 28.2339 173.383 31.8596 168.227 31.8596C161.763 31.9367 161.84 25.9967 161.84 25.9967Z" fill="black"/>
</svg>
